<svg width="21" height="19" viewBox="0 0 21 19" fill="none" xmlns="http://www.w3.org/2000/svg">
<g id="&#240;&#159;&#166;&#134; icon &#34;Search&#34;">
<path id="Vector" d="M8.19648 0C12.5576 0 16.0929 3.34187 16.0929 7.46429C16.0929 9.28121 15.4061 10.9465 14.2646 12.2409L20.1898 17.8416C20.4701 18.1066 20.4701 18.5363 20.1898 18.8013C19.9406 19.0368 19.5538 19.063 19.274 18.8798L19.1746 18.8013L13.2496 13.2003C11.8803 14.2794 10.1186 14.9286 8.19648 14.9286C3.8354 14.9286 0.300049 11.5867 0.300049 7.46429C0.300049 3.34187 3.8354 0 8.19648 0ZM8.19648 1.35714C4.62832 1.35714 1.73576 4.0914 1.73576 7.46429C1.73576 10.8372 4.62832 13.5714 8.19648 13.5714C11.7646 13.5714 14.6572 10.8372 14.6572 7.46429C14.6572 4.0914 11.7646 1.35714 8.19648 1.35714Z" fill="#212121"/>
</g>
</svg>
